<svg width="70" height="70" viewBox="0 0 70 70" fill="none" xmlns="http://www.w3.org/2000/svg">
<circle cx="34.7087" cy="34.7087" r="34.7087" fill="white" fill-opacity="0.02"/>
<path d="M25.5446 30.3576C25.5446 32.1186 26.5022 34.0469 28.3911 36.0808C29.2784 37.0405 30.2448 37.8858 31.0091 38.5022C31.0091 38.5022 32.1424 37.516 33.3636 36.433C32.6256 35.8431 31.6241 35.0066 30.7192 34.0292C29.05 32.2242 28.6898 31.0356 28.6898 30.3664C28.6898 27.8306 30.8158 25.7702 33.4426 25.7702C36.0431 25.7702 38.1692 27.8306 38.1955 30.3664C38.1955 30.4897 38.178 30.6305 38.1428 30.8066C38.4854 30.067 38.7314 29.2658 38.7314 28.5173C38.7402 23.8683 35.5336 22.9526 35.2964 22.8998C34.7077 22.7677 34.0928 22.6885 33.4602 22.6885C29.0939 22.6885 25.5446 26.1224 25.5446 30.3576Z" fill="url(#paint0_linear_739_1592)"/>
<path fill-rule="evenodd" clip-rule="evenodd" d="M36.096 33.8972C36.5879 33.3865 38.5998 30.9035 38.6701 28.5262C38.7755 24.2822 35.7006 23.0407 35.3053 22.9263C38.7491 23.7451 41.3232 26.774 41.3408 30.3664C41.3408 33.2985 38.468 36.2658 35.8763 38.4582L35.8851 38.467C35.8851 38.467 34.7518 39.4531 33.5306 40.5362C33.5306 40.5362 32.0811 41.7688 30.8072 43.072C30.3152 43.5827 28.3297 46.0568 28.2594 48.4342C28.1364 52.7926 31.387 53.9989 31.633 54.0605C28.1628 53.2593 25.5799 50.2216 25.5623 46.6116C25.5623 43.6795 28.4351 40.7122 31.0268 38.511C31.018 38.511 31.018 38.5022 31.0092 38.5022C31.0092 38.5022 32.1426 37.5161 33.3637 36.4331C33.3637 36.4419 34.8221 35.2092 36.096 33.8972ZM35.2701 22.9263C35.2789 22.9263 35.2877 22.9263 35.2965 22.9351C35.2877 22.9263 35.2789 22.9263 35.2701 22.9263Z" fill="white"/>
<path d="M41.3408 46.6028C41.3408 44.8418 40.3832 42.9136 38.4944 40.8796C37.607 39.9199 36.6407 39.0746 35.8763 38.4583C35.8763 38.4583 34.743 39.4444 33.5219 40.5274C34.2598 41.1173 35.2614 41.9538 36.1662 42.9312C37.853 44.7362 38.1957 45.916 38.1957 46.594C38.1957 49.1298 36.0696 51.1902 33.4428 51.1902C30.8423 51.1902 28.7163 49.1298 28.6899 46.594C28.6899 46.4707 28.7075 46.3299 28.7426 46.1538C28.4 46.8934 28.154 47.6946 28.154 48.4431C28.154 53.0921 31.3607 54.0078 31.5891 54.0606C32.1777 54.1927 32.7927 54.2719 33.4252 54.2719C37.7915 54.2631 41.3408 50.8292 41.3408 46.6028Z" fill="url(#paint1_linear_739_1592)"/>
<path d="M43.857 19.8424C42.8474 21.6334 41.0288 22.5189 39.795 21.8201C38.5612 21.1214 38.3794 19.1031 39.389 17.312C40.3986 15.521 42.2173 14.6355 43.4511 15.3342C44.6849 16.0329 44.8666 18.0513 43.857 19.8424Z" fill="url(#paint2_linear_739_1592)"/>
<path d="M37.6467 17.2019C37.4587 18.5495 36.5538 19.5365 35.6254 19.4064C34.6971 19.2762 34.0969 18.0783 34.2849 16.7307C34.473 15.383 35.3779 14.3961 36.3063 14.5262C37.2346 14.6563 37.8348 15.8542 37.6467 17.2019Z" fill="url(#paint3_linear_739_1592)"/>
<path d="M33.6149 17.6177C33.6283 18.7587 32.9552 19.6917 32.1115 19.7016C31.2679 19.7116 30.5731 18.7946 30.5598 17.6536C30.5464 16.5126 31.2195 15.5796 32.0632 15.5697C32.9068 15.5597 33.6016 16.4767 33.6149 17.6177Z" fill="url(#paint4_linear_739_1592)"/>
<path d="M29.9137 19.5322C29.9256 20.5511 29.3661 21.3837 28.6638 21.392C27.9616 21.4002 27.3827 20.5809 27.3708 19.562C27.3589 18.5431 27.9185 17.7105 28.6207 17.7022C29.3229 17.694 29.9018 18.5133 29.9137 19.5322Z" fill="url(#paint5_linear_739_1592)"/>
<path d="M27.3778 22.1814C27.3889 23.1324 26.92 23.909 26.3304 23.916C25.7409 23.9229 25.254 23.1576 25.2429 22.2065C25.2317 21.2555 25.7006 20.4789 26.2902 20.472C26.8797 20.465 27.3666 21.2304 27.3778 22.1814Z" fill="url(#paint6_linear_739_1592)"/>
<defs>
<linearGradient id="paint0_linear_739_1592" x1="26.7944" y1="34.4824" x2="37.7383" y2="23.6519" gradientUnits="userSpaceOnUse">
<stop offset="0.21" stop-color="white"/>
<stop offset="0.8929" stop-color="white"/>
</linearGradient>
<linearGradient id="paint1_linear_739_1592" x1="40.0892" y1="42.4808" x2="29.1453" y2="53.3113" gradientUnits="userSpaceOnUse">
<stop offset="0.21" stop-color="white" stop-opacity="0.913725"/>
<stop offset="0.6841" stop-color="white"/>
</linearGradient>
<linearGradient id="paint2_linear_739_1592" x1="41.623" y1="15.0952" x2="41.623" y2="22.0591" gradientUnits="userSpaceOnUse">
<stop stop-color="white"/>
<stop offset="1" stop-color="white"/>
</linearGradient>
<linearGradient id="paint3_linear_739_1592" x1="35.9658" y1="14.5146" x2="35.9658" y2="19.4179" gradientUnits="userSpaceOnUse">
<stop stop-color="white"/>
<stop offset="1" stop-color="white"/>
</linearGradient>
<linearGradient id="paint4_linear_739_1592" x1="32.0873" y1="15.5696" x2="32.0873" y2="19.7017" gradientUnits="userSpaceOnUse">
<stop stop-color="white"/>
<stop offset="1" stop-color="white"/>
</linearGradient>
<linearGradient id="paint5_linear_739_1592" x1="28.6423" y1="17.7021" x2="28.6423" y2="21.392" gradientUnits="userSpaceOnUse">
<stop stop-color="white"/>
<stop offset="1" stop-color="white"/>
</linearGradient>
<linearGradient id="paint6_linear_739_1592" x1="26.3103" y1="20.4719" x2="26.3103" y2="23.916" gradientUnits="userSpaceOnUse">
<stop stop-color="white"/>
<stop offset="1" stop-color="white"/>
</linearGradient>
</defs>
</svg>
