<svg width="156" height="31" viewBox="0 0 156 31" fill="none" xmlns="http://www.w3.org/2000/svg">
<path d="M14.2335 12.2261C14.2335 13.585 14.9724 15.0731 16.4301 16.6426C17.1148 17.3833 17.8606 18.0356 18.4504 18.5112C18.4504 18.5112 19.3249 17.7502 20.2673 16.9144C19.6978 16.4592 18.925 15.8137 18.2267 15.0595C16.9385 13.6665 16.6606 12.7493 16.6606 12.2329C16.6606 10.276 18.3012 8.68602 20.3283 8.68602C22.3351 8.68602 23.9758 10.276 23.9961 12.2329C23.9961 12.328 23.9825 12.4367 23.9554 12.5726C24.2198 12.0018 24.4097 11.3835 24.4097 10.806C24.4164 7.21835 21.9419 6.5117 21.7588 6.47093C21.3046 6.36901 20.83 6.30786 20.3419 6.30786C16.9724 6.30786 14.2335 8.9578 14.2335 12.2261Z" fill="white"/>
<path fill-rule="evenodd" clip-rule="evenodd" d="M22.3759 14.9574C22.7556 14.5633 24.3081 12.6472 24.3623 10.8127C24.4437 7.5376 22.0708 6.57954 21.7657 6.49121C24.4234 7.12312 26.4098 9.46051 26.4233 12.2328C26.4233 14.4954 24.2064 16.7852 22.2064 18.4771L22.2132 18.4839C22.2132 18.4839 21.3386 19.2449 20.3963 20.0807C20.3963 20.0807 19.2776 21.0319 18.2946 22.0375C17.9149 22.4316 16.3827 24.341 16.3285 26.1755C16.2336 29.5389 18.742 30.4698 18.9319 30.5174C16.2539 29.899 14.2607 27.5549 14.2472 24.769C14.2472 22.5064 16.4641 20.2166 18.4641 18.5179C18.4573 18.5179 18.4573 18.5111 18.4505 18.5111C18.4505 18.5111 19.3251 17.7501 20.2675 16.9143C20.2675 16.9211 21.3929 15.9699 22.3759 14.9574ZM21.7386 6.49121C21.7454 6.49121 21.7522 6.49121 21.759 6.49801C21.7522 6.49121 21.7454 6.49121 21.7386 6.49121Z" fill="white"/>
<path d="M26.4233 24.7624C26.4233 23.4035 25.6844 21.9154 24.2267 20.3458C23.542 19.6052 22.7962 18.9529 22.2064 18.4773C22.2064 18.4773 21.3319 19.2383 20.3895 20.0741C20.959 20.5293 21.7319 21.1748 22.4302 21.929C23.7318 23.3219 23.9962 24.2324 23.9962 24.7556C23.9962 26.7125 22.3556 28.3025 20.3285 28.3025C18.3217 28.3025 16.681 26.7125 16.6607 24.7556C16.6607 24.6605 16.6743 24.5518 16.7014 24.4159C16.437 24.9866 16.2471 25.605 16.2471 26.1825C16.2471 29.7701 18.7217 30.4768 18.898 30.5175C19.3522 30.6195 19.8268 30.6806 20.3149 30.6806C23.6844 30.6738 26.4233 28.0239 26.4233 24.7624Z" fill="white"/>
<path d="M28.3647 4.11134C27.5856 5.49346 26.1822 6.1768 25.23 5.63759C24.2779 5.0984 24.1377 3.54084 24.9168 2.15869C25.6959 0.776547 27.0993 0.0932139 28.0514 0.632419C29.0036 1.17163 29.1438 2.72919 28.3647 4.11134Z" fill="white"/>
<path d="M23.5725 2.0737C23.4275 3.11364 22.7291 3.87531 22.0127 3.77491C21.2963 3.67448 20.8332 2.75005 20.9783 1.71009C21.1233 0.670135 21.8217 -0.0915188 22.5381 0.00889024C23.2545 0.109297 23.7176 1.03374 23.5725 2.0737Z" fill="white"/>
<path d="M20.4613 2.39449C20.4716 3.275 19.9522 3.99501 19.3011 4.00266C18.6501 4.01031 18.114 3.30271 18.1037 2.4222C18.0934 1.54168 18.6128 0.821676 19.2638 0.814026C19.9149 0.806375 20.451 1.51397 20.4613 2.39449Z" fill="white"/>
<path d="M17.6051 3.87192C17.6143 4.6582 17.1825 5.30075 16.6406 5.30712C16.0987 5.31349 15.6519 4.68125 15.6427 3.89499C15.6335 3.10871 16.0654 2.46613 16.6072 2.45976C17.1491 2.4534 17.5959 3.08564 17.6051 3.87192Z" fill="white"/>
<path d="M15.6476 5.91637C15.6562 6.65028 15.2944 7.24957 14.8394 7.25493C14.3845 7.26026 14.0087 6.66965 14.0001 5.93574C13.9916 5.20183 14.3534 4.60253 14.8084 4.5972C15.2633 4.59185 15.639 5.18246 15.6476 5.91637Z" fill="white"/>
<path d="M39.0139 8.74942V21.8403H36.2462V8.74942H39.0139ZM52.8415 13.3325H50.0418C49.9907 12.9703 49.8863 12.6486 49.7286 12.3673C49.5709 12.0818 49.3685 11.8389 49.1214 11.6386C48.8742 11.4383 48.5887 11.2849 48.2648 11.1784C47.9452 11.0719 47.5979 11.0186 47.2229 11.0186C46.5454 11.0186 45.9552 11.1869 45.4523 11.5236C44.9495 11.856 44.5596 12.3418 44.2826 12.981C44.0056 13.6159 43.8671 14.3872 43.8671 15.2949C43.8671 16.2281 44.0056 17.0122 44.2826 17.6472C44.5638 18.2821 44.9559 18.7615 45.4587 19.0854C45.9616 19.4092 46.5432 19.5712 47.2037 19.5712C47.5745 19.5712 47.9175 19.5222 48.2329 19.4241C48.5525 19.3261 48.8358 19.1834 49.083 18.9959C49.3302 18.8041 49.5347 18.5719 49.6966 18.2991C49.8628 18.0264 49.9779 17.7153 50.0418 17.3659L52.8415 17.3787C52.7691 17.9795 52.588 18.5591 52.2982 19.1173C52.0127 19.6713 51.627 20.1677 51.1412 20.6067C50.6597 21.0413 50.0844 21.3865 49.4154 21.6422C48.7506 21.8936 47.9985 22.0193 47.159 22.0193C45.9914 22.0193 44.9474 21.7551 44.0269 21.2267C43.1107 20.6983 42.3863 19.9334 41.8536 18.932C41.3252 17.9305 41.061 16.7182 41.061 15.2949C41.061 13.8673 41.3295 12.6528 41.8664 11.6514C42.4033 10.65 43.132 9.88721 44.0525 9.36306C44.9729 8.83465 46.0084 8.57045 47.159 8.57045C47.9175 8.57045 48.6207 8.67698 49.2684 8.89005C49.9204 9.10312 50.4978 9.4142 51.0006 9.82329C51.5035 10.2281 51.9126 10.7246 52.2279 11.3126C52.5475 11.9007 52.752 12.574 52.8415 13.3325ZM58.9923 21.8403V8.74942H67.6599V11.0314H61.76V14.1507H67.0846V16.4327H61.76V21.8403H58.9923ZM73.1858 22.0321C72.1929 22.0321 71.3343 21.8212 70.6098 21.3993C69.8896 20.9731 69.3335 20.3808 68.9415 19.6223C68.5494 18.8595 68.3534 17.9753 68.3534 16.9696C68.3534 15.9554 68.5494 15.069 68.9415 14.3105C69.3335 13.5477 69.8896 12.9554 70.6098 12.5335C71.3343 12.1074 72.1929 11.8943 73.1858 11.8943C74.1787 11.8943 75.0352 12.1074 75.7554 12.5335C76.4798 12.9554 77.0381 13.5477 77.4301 14.3105C77.8222 15.069 78.0182 15.9554 78.0182 16.9696C78.0182 17.9753 77.8222 18.8595 77.4301 19.6223C77.0381 20.3808 76.4798 20.9731 75.7554 21.3993C75.0352 21.8212 74.1787 22.0321 73.1858 22.0321ZM73.1986 19.9227C73.6503 19.9227 74.0274 19.7949 74.33 19.5392C74.6325 19.2793 74.8605 18.9256 75.0139 18.4781C75.1716 18.0307 75.2504 17.5214 75.2504 16.9504C75.2504 16.3794 75.1716 15.8702 75.0139 15.4227C74.8605 14.9753 74.6325 14.6216 74.33 14.3616C74.0274 14.1017 73.6503 13.9717 73.1986 13.9717C72.7426 13.9717 72.3591 14.1017 72.048 14.3616C71.7412 14.6216 71.509 14.9753 71.3513 15.4227C71.1979 15.8702 71.1212 16.3794 71.1212 16.9504C71.1212 17.5214 71.1979 18.0307 71.3513 18.4781C71.509 18.9256 71.7412 19.2793 72.048 19.5392C72.3591 19.7949 72.7426 19.9227 73.1986 19.9227ZM84.2249 22.0321C83.232 22.0321 82.3733 21.8212 81.6489 21.3993C80.9287 20.9731 80.3726 20.3808 79.9806 19.6223C79.5885 18.8595 79.3925 17.9753 79.3925 16.9696C79.3925 15.9554 79.5885 15.069 79.9806 14.3105C80.3726 13.5477 80.9287 12.9554 81.6489 12.5335C82.3733 12.1074 83.232 11.8943 84.2249 11.8943C85.2178 11.8943 86.0743 12.1074 86.7945 12.5335C87.5189 12.9554 88.0771 13.5477 88.4692 14.3105C88.8612 15.069 89.0573 15.9554 89.0573 16.9696C89.0573 17.9753 88.8612 18.8595 88.4692 19.6223C88.0771 20.3808 87.5189 20.9731 86.7945 21.3993C86.0743 21.8212 85.2178 22.0321 84.2249 22.0321ZM84.2377 19.9227C84.6894 19.9227 85.0665 19.7949 85.3691 19.5392C85.6716 19.2793 85.8996 18.9256 86.053 18.4781C86.2107 18.0307 86.2895 17.5214 86.2895 16.9504C86.2895 16.3794 86.2107 15.8702 86.053 15.4227C85.8996 14.9753 85.6716 14.6216 85.3691 14.3616C85.0665 14.1017 84.6894 13.9717 84.2377 13.9717C83.7817 13.9717 83.3982 14.1017 83.0871 14.3616C82.7803 14.6216 82.548 14.9753 82.3904 15.4227C82.2369 15.8702 82.1602 16.3794 82.1602 16.9504C82.1602 17.5214 82.2369 18.0307 82.3904 18.4781C82.548 18.9256 82.7803 19.2793 83.0871 19.5392C83.3982 19.7949 83.7817 19.9227 84.2377 19.9227ZM96.0502 12.0221V14.0676H90.1375V12.0221H96.0502ZM91.4798 9.66988H94.2029V18.8233C94.2029 19.0747 94.2412 19.2707 94.3179 19.4114C94.3946 19.5477 94.5012 19.6436 94.6375 19.699C94.7781 19.7544 94.9401 19.7821 95.1233 19.7821C95.2512 19.7821 95.379 19.7714 95.5068 19.7501C95.6347 19.7246 95.7327 19.7054 95.8009 19.6926L96.2291 21.7189C96.0928 21.7615 95.901 21.8105 95.6539 21.8659C95.4067 21.9256 95.1063 21.9618 94.7526 21.9746C94.0963 22.0001 93.521 21.9128 93.0267 21.7125C92.5367 21.5122 92.1553 21.2011 91.8825 20.7793C91.6098 20.3574 91.4756 19.8247 91.4798 19.1812V9.66988ZM97.824 25.5222V12.0221H100.509V13.6713H100.63C100.749 13.4071 100.922 13.1386 101.148 12.8659C101.378 12.5889 101.676 12.3588 102.043 12.1756C102.413 11.9881 102.874 11.8943 103.423 11.8943C104.139 11.8943 104.8 12.0818 105.405 12.4568C106.01 12.8275 106.494 13.3879 106.856 14.1379C107.218 14.8837 107.399 15.819 107.399 16.944C107.399 18.0392 107.222 18.9639 106.869 19.7182C106.519 20.4682 106.042 21.0371 105.437 21.4248C104.836 21.8084 104.163 22.0001 103.417 22.0001C102.889 22.0001 102.439 21.9128 102.068 21.7381C101.702 21.5633 101.401 21.3439 101.167 21.0797C100.933 20.8112 100.754 20.5406 100.63 20.2679H100.547V25.5222H97.824ZM100.489 16.9312C100.489 17.515 100.57 18.0243 100.732 18.4589C100.894 18.8936 101.129 19.2324 101.435 19.4753C101.742 19.7139 102.115 19.8332 102.554 19.8332C102.997 19.8332 103.372 19.7118 103.679 19.4689C103.986 19.2217 104.218 18.8808 104.376 18.4462C104.538 18.0072 104.619 17.5023 104.619 16.9312C104.619 16.3645 104.54 15.8659 104.382 15.4355C104.225 15.0051 103.992 14.6685 103.685 14.4256C103.379 14.1827 103.002 14.0612 102.554 14.0612C102.111 14.0612 101.736 14.1784 101.429 14.4128C101.127 14.6471 100.894 14.9795 100.732 15.4099C100.57 15.8403 100.489 16.3474 100.489 16.9312ZM109.215 21.8403V12.0221H111.854V13.7352H111.957C112.136 13.1258 112.436 12.6656 112.858 12.3545C113.28 12.0392 113.766 11.8815 114.315 11.8815C114.452 11.8815 114.599 11.89 114.756 11.9071C114.914 11.9241 115.053 11.9476 115.172 11.9774V14.3936C115.044 14.3552 114.867 14.3212 114.641 14.2913C114.416 14.2615 114.209 14.2466 114.021 14.2466C113.621 14.2466 113.263 14.3339 112.948 14.5087C112.636 14.6791 112.389 14.9177 112.206 15.2246C112.027 15.5314 111.938 15.8851 111.938 16.2856V21.8403H109.215ZM116.58 21.8403V12.0221H119.303V21.8403H116.58ZM117.948 10.7565C117.543 10.7565 117.196 10.6223 116.906 10.3538C116.62 10.0811 116.478 9.7551 116.478 9.37584C116.478 9.00084 116.62 8.67911 116.906 8.41064C117.196 8.13792 117.543 8.00155 117.948 8.00155C118.353 8.00155 118.698 8.13792 118.983 8.41064C119.273 8.67911 119.418 9.00084 119.418 9.37584C119.418 9.7551 119.273 10.0811 118.983 10.3538C118.698 10.6223 118.353 10.7565 117.948 10.7565ZM124.207 16.1642V21.8403H121.484V12.0221H124.079V13.7544H124.194C124.412 13.1834 124.776 12.7317 125.287 12.3993C125.799 12.0626 126.419 11.8943 127.147 11.8943C127.829 11.8943 128.424 12.0435 128.931 12.3418C129.438 12.64 129.832 13.0662 130.113 13.6202C130.395 14.1699 130.535 14.8261 130.535 15.5889V21.8403H127.812V16.0747C127.816 15.4739 127.663 15.0051 127.352 14.6685C127.041 14.3275 126.613 14.1571 126.067 14.1571C125.701 14.1571 125.377 14.2359 125.096 14.3936C124.819 14.5513 124.601 14.7814 124.444 15.0839C124.29 15.3822 124.211 15.7423 124.207 16.1642ZM137.904 12.0221V14.0676H131.991V12.0221H137.904ZM133.333 9.66988H136.056V18.8233C136.056 19.0747 136.095 19.2707 136.171 19.4114C136.248 19.5477 136.355 19.6436 136.491 19.699C136.632 19.7544 136.794 19.7821 136.977 19.7821C137.105 19.7821 137.233 19.7714 137.36 19.7501C137.488 19.7246 137.586 19.7054 137.654 19.6926L138.083 21.7189C137.946 21.7615 137.755 21.8105 137.507 21.8659C137.26 21.9256 136.96 21.9618 136.606 21.9746C135.95 22.0001 135.375 21.9128 134.88 21.7125C134.39 21.5122 134.009 21.2011 133.736 20.7793C133.463 20.3574 133.329 19.8247 133.333 19.1812V9.66988Z" fill="white"/>
</svg>
