<svg width="200" height="50" viewBox="0 0 200 50" fill="none" xmlns="http://www.w3.org/2000/svg">
<path fill-rule="evenodd" clip-rule="evenodd" d="M46.5403 3.58065C46.5403 5.50524 45.0219 7.07519 43.1177 7.15787L42.6015 11.1224C49.4088 12.2308 54.6048 18.1377 54.6048 25.2582C54.6048 28.9413 53.2146 32.2997 50.9302 34.8373L53.1556 37.487C53.6854 37.1774 54.3018 37 54.9597 37C56.9372 37 58.5403 38.6031 58.5403 40.5806C58.5403 42.5582 56.9372 44.1613 54.9597 44.1613C52.9821 44.1613 51.379 42.5582 51.379 40.5806C51.379 39.6016 51.772 38.7143 52.4087 38.0679L50.2711 35.5227C48.7889 36.9653 46.9954 38.0896 45.0009 38.7853L46.1398 42.0943C46.4031 42.0326 46.6776 42 46.9597 42C48.9372 42 50.5403 43.6031 50.5403 45.5806C50.5403 47.5582 48.9372 49.1613 46.9597 49.1613C44.9821 49.1613 43.379 47.5582 43.379 45.5806C43.379 44.2019 44.1583 43.0051 45.3005 42.4068L44.1464 39.0534C42.9171 39.3971 41.6211 39.5808 40.2822 39.5808C36.438 39.5808 32.9475 38.0662 30.3748 35.6013L28.5552 38.0318C29.2131 38.6811 29.6209 39.5832 29.6209 40.5806C29.6209 42.5582 28.0178 44.1613 26.0403 44.1613C24.0628 44.1613 22.4597 42.5582 22.4597 40.5806C22.4597 38.6031 24.0628 37 26.0403 37C26.7388 37 27.3906 37.2 27.9415 37.5459L29.8187 35.0384C27.425 32.4785 25.9597 29.0395 25.9597 25.2582C25.9597 17.348 32.3721 10.9356 40.2822 10.9356C40.7605 10.9356 41.2333 10.9591 41.6996 11.0049L42.2102 7.08273C40.5925 6.7382 39.379 5.30113 39.379 3.58065C39.379 1.60311 40.9821 0 42.9597 0C44.9372 0 46.5403 1.60311 46.5403 3.58065Z" fill="#14B8A6"/>
<path d="M77.4835 22.7284H75.7108C75.6426 22.3496 75.5157 22.0163 75.3301 21.7284C75.1445 21.4405 74.9172 21.1962 74.6483 20.9954C74.3794 20.7947 74.0782 20.6432 73.7449 20.5409C73.4153 20.4386 73.065 20.3875 72.6938 20.3875C72.0233 20.3875 71.4229 20.556 70.8926 20.8932C70.3661 21.2303 69.9494 21.7246 69.6426 22.3761C69.3396 23.0276 69.1881 23.8231 69.1881 24.7625C69.1881 25.7094 69.3396 26.5087 69.6426 27.1602C69.9494 27.8117 70.368 28.3041 70.8983 28.6375C71.4286 28.9708 72.0252 29.1375 72.6881 29.1375C73.0555 29.1375 73.404 29.0882 73.7335 28.9897C74.0669 28.8875 74.368 28.7379 74.6369 28.5409C74.9059 28.3439 75.1331 28.1034 75.3188 27.8193C75.5081 27.5314 75.6388 27.2019 75.7108 26.8307L77.4835 26.8363C77.3888 27.4083 77.2051 27.9348 76.9324 28.4159C76.6635 28.8932 76.3169 29.306 75.8926 29.6545C75.4722 29.9992 74.9911 30.2663 74.4494 30.4557C73.9078 30.6451 73.3169 30.7397 72.6767 30.7397C71.6691 30.7397 70.7714 30.5011 69.9835 30.0238C69.1956 29.5428 68.5744 28.8553 68.1199 27.9613C67.6691 27.0674 67.4438 26.0011 67.4438 24.7625C67.4438 23.5201 67.671 22.4538 68.1256 21.5636C68.5801 20.6697 69.2013 19.9841 69.9892 19.5068C70.7771 19.0257 71.6729 18.7852 72.6767 18.7852C73.2941 18.7852 73.8699 18.8742 74.404 19.0522C74.9419 19.2265 75.4248 19.4841 75.8528 19.825C76.2809 20.1621 76.635 20.575 76.9153 21.0636C77.1956 21.5485 77.385 22.1034 77.4835 22.7284ZM81.9878 30.7738C81.4348 30.7738 80.9348 30.6716 80.4878 30.467C80.0408 30.2587 79.6867 29.9576 79.4253 29.5636C79.1677 29.1697 79.0389 28.6867 79.0389 28.1147C79.0389 27.6223 79.1336 27.217 79.323 26.8988C79.5124 26.5807 79.7681 26.3288 80.0901 26.1432C80.412 25.9576 80.7719 25.8174 81.1696 25.7227C81.5673 25.628 81.9726 25.556 82.3855 25.5068C82.9082 25.4462 83.3325 25.3969 83.6582 25.3591C83.984 25.3174 84.2207 25.2511 84.3685 25.1602C84.5162 25.0693 84.5901 24.9216 84.5901 24.717V24.6772C84.5901 24.181 84.4499 23.7966 84.1696 23.5238C83.8931 23.2511 83.4802 23.1147 82.931 23.1147C82.359 23.1147 81.9082 23.2416 81.5787 23.4954C81.2529 23.7454 81.0276 24.0238 80.9026 24.3307L79.306 23.967C79.4954 23.4367 79.7719 23.0087 80.1355 22.6829C80.5029 22.3534 80.9253 22.1147 81.4026 21.967C81.8798 21.8155 82.3817 21.7397 82.9082 21.7397C83.2567 21.7397 83.626 21.7814 84.0162 21.8647C84.4101 21.9443 84.7776 22.092 85.1185 22.3079C85.4632 22.5238 85.7454 22.8326 85.9651 23.2341C86.1848 23.6318 86.2946 24.1488 86.2946 24.7852V30.5807H84.6355V29.3875H84.5673C84.4575 29.6072 84.2927 29.8231 84.073 30.0352C83.8533 30.2473 83.5711 30.4235 83.2264 30.5636C82.8817 30.7038 82.4688 30.7738 81.9878 30.7738ZM82.3571 29.4102C82.8268 29.4102 83.2283 29.3174 83.5617 29.1318C83.8988 28.9462 84.1545 28.7038 84.3287 28.4045C84.5067 28.1015 84.5957 27.7776 84.5957 27.4329V26.3079C84.5351 26.3685 84.4177 26.4254 84.2435 26.4784C84.073 26.5276 83.8779 26.5712 83.6582 26.6091C83.4385 26.6432 83.2245 26.6754 83.0162 26.7057C82.8079 26.7322 82.6336 26.7549 82.4935 26.7738C82.1639 26.8155 81.8628 26.8856 81.5901 26.9841C81.3211 27.0826 81.1052 27.2246 80.9423 27.4102C80.7832 27.592 80.7037 27.8344 80.7037 28.1375C80.7037 28.5579 80.859 28.8761 81.1696 29.092C81.4802 29.3041 81.876 29.4102 82.3571 29.4102ZM88.5574 30.5807V21.8534H90.1994V23.2397H90.2903C90.4494 22.7701 90.7297 22.4007 91.1313 22.1318C91.5366 21.8591 91.9949 21.7227 92.5063 21.7227C92.6123 21.7227 92.7373 21.7265 92.8813 21.7341C93.029 21.7416 93.1445 21.7511 93.2278 21.7625V23.3875C93.1597 23.3685 93.0385 23.3477 92.8642 23.325C92.69 23.2985 92.5157 23.2852 92.3415 23.2852C91.94 23.2852 91.582 23.3704 91.2676 23.5409C90.957 23.7076 90.7108 23.9405 90.529 24.2397C90.3472 24.5352 90.2563 24.8723 90.2563 25.2511V30.5807H88.5574ZM94.8344 30.5807V18.9443H96.5332V23.2682H96.6355C96.734 23.0863 96.876 22.8761 97.0617 22.6375C97.2473 22.3988 97.5048 22.1905 97.8344 22.0125C98.1639 21.8307 98.5995 21.7397 99.1412 21.7397C99.8457 21.7397 100.475 21.9178 101.028 22.2738C101.581 22.6299 102.014 23.1432 102.329 23.8136C102.647 24.4841 102.806 25.2909 102.806 26.2341C102.806 27.1772 102.649 27.986 102.334 28.6602C102.02 29.3307 101.588 29.8477 101.039 30.2113C100.49 30.5712 99.8628 30.7511 99.1582 30.7511C98.6279 30.7511 98.1942 30.6621 97.8571 30.4841C97.5238 30.306 97.2624 30.0977 97.073 29.8591C96.8836 29.6204 96.7378 29.4083 96.6355 29.2227H96.4935V30.5807H94.8344ZM96.4992 26.217C96.4992 26.8307 96.5882 27.3685 96.7662 27.8307C96.9442 28.2928 97.2018 28.6545 97.5389 28.9159C97.876 29.1735 98.2889 29.3022 98.7776 29.3022C99.2851 29.3022 99.7094 29.1678 100.05 28.8988C100.391 28.6261 100.649 28.2568 100.823 27.7909C101.001 27.325 101.09 26.8004 101.09 26.217C101.09 25.6413 101.003 25.1242 100.829 24.6659C100.658 24.2076 100.401 23.8458 100.056 23.5807C99.7151 23.3155 99.2889 23.1829 98.7776 23.1829C98.2851 23.1829 97.8685 23.3098 97.5276 23.5636C97.1904 23.8174 96.9348 24.1716 96.7605 24.6261C96.5863 25.0807 96.4992 25.611 96.4992 26.217ZM108.39 30.7568C107.572 30.7568 106.858 30.5693 106.248 30.1943C105.638 29.8193 105.164 29.2947 104.827 28.6204C104.49 27.9462 104.322 27.1583 104.322 26.2568C104.322 25.3515 104.49 24.5598 104.827 23.8818C105.164 23.2038 105.638 22.6772 106.248 22.3022C106.858 21.9272 107.572 21.7397 108.39 21.7397C109.208 21.7397 109.922 21.9272 110.532 22.3022C111.142 22.6772 111.615 23.2038 111.952 23.8818C112.289 24.5598 112.458 25.3515 112.458 26.2568C112.458 27.1583 112.289 27.9462 111.952 28.6204C111.615 29.2947 111.142 29.8193 110.532 30.1943C109.922 30.5693 109.208 30.7568 108.39 30.7568ZM108.395 29.3307C108.926 29.3307 109.365 29.1905 109.714 28.9102C110.062 28.6299 110.32 28.2568 110.486 27.7909C110.657 27.325 110.742 26.8117 110.742 26.2511C110.742 25.6943 110.657 25.1829 110.486 24.717C110.32 24.2473 110.062 23.8704 109.714 23.5863C109.365 23.3022 108.926 23.1602 108.395 23.1602C107.861 23.1602 107.418 23.3022 107.066 23.5863C106.717 23.8704 106.458 24.2473 106.288 24.717C106.121 25.1829 106.038 25.6943 106.038 26.2511C106.038 26.8117 106.121 27.325 106.288 27.7909C106.458 28.2568 106.717 28.6299 107.066 28.9102C107.418 29.1905 107.861 29.3307 108.395 29.3307ZM116.053 25.3988V30.5807H114.354V21.8534H115.985V23.2738H116.093C116.294 22.8117 116.608 22.4405 117.036 22.1602C117.468 21.8799 118.011 21.7397 118.667 21.7397C119.261 21.7397 119.782 21.8647 120.229 22.1147C120.676 22.361 121.023 22.7284 121.269 23.217C121.515 23.7057 121.638 24.3098 121.638 25.0295V30.5807H119.939V25.2341C119.939 24.6015 119.775 24.1072 119.445 23.7511C119.116 23.3913 118.663 23.2113 118.087 23.2113C117.693 23.2113 117.343 23.2966 117.036 23.467C116.733 23.6375 116.493 23.8875 116.314 24.217C116.14 24.5428 116.053 24.9367 116.053 25.3988ZM137.952 22.7284H136.18C136.111 22.3496 135.984 22.0163 135.799 21.7284C135.613 21.4405 135.386 21.1962 135.117 20.9954C134.848 20.7947 134.547 20.6432 134.214 20.5409C133.884 20.4386 133.534 20.3875 133.163 20.3875C132.492 20.3875 131.892 20.556 131.361 20.8932C130.835 21.2303 130.418 21.7246 130.111 22.3761C129.808 23.0276 129.657 23.8231 129.657 24.7625C129.657 25.7094 129.808 26.5087 130.111 27.1602C130.418 27.8117 130.837 28.3041 131.367 28.6375C131.897 28.9708 132.494 29.1375 133.157 29.1375C133.524 29.1375 133.873 29.0882 134.202 28.9897C134.536 28.8875 134.837 28.7379 135.106 28.5409C135.375 28.3439 135.602 28.1034 135.788 27.8193C135.977 27.5314 136.108 27.2019 136.18 26.8307L137.952 26.8363C137.858 27.4083 137.674 27.9348 137.401 28.4159C137.132 28.8932 136.786 29.306 136.361 29.6545C135.941 29.9992 135.46 30.2663 134.918 30.4557C134.377 30.6451 133.786 30.7397 133.145 30.7397C132.138 30.7397 131.24 30.5011 130.452 30.0238C129.664 29.5428 129.043 28.8553 128.589 27.9613C128.138 27.0674 127.913 26.0011 127.913 24.7625C127.913 23.5201 128.14 22.4538 128.594 21.5636C129.049 20.6697 129.67 19.9841 130.458 19.5068C131.246 19.0257 132.142 18.7852 133.145 18.7852C133.763 18.7852 134.339 18.8742 134.873 19.0522C135.411 19.2265 135.894 19.4841 136.322 19.825C136.75 20.1621 137.104 20.575 137.384 21.0636C137.664 21.5485 137.854 22.1034 137.952 22.7284ZM139.917 30.5807V21.8534H141.559V23.2397H141.65C141.809 22.7701 142.089 22.4007 142.491 22.1318C142.896 21.8591 143.354 21.7227 143.866 21.7227C143.972 21.7227 144.097 21.7265 144.241 21.7341C144.388 21.7416 144.504 21.7511 144.587 21.7625V23.3875C144.519 23.3685 144.398 23.3477 144.224 23.325C144.049 23.2985 143.875 23.2852 143.701 23.2852C143.299 23.2852 142.941 23.3704 142.627 23.5409C142.316 23.7076 142.07 23.9405 141.888 24.2397C141.707 24.5352 141.616 24.8723 141.616 25.2511V30.5807H139.917ZM149.421 30.7568C148.603 30.7568 147.889 30.5693 147.279 30.1943C146.669 29.8193 146.196 29.2947 145.859 28.6204C145.521 27.9462 145.353 27.1583 145.353 26.2568C145.353 25.3515 145.521 24.5598 145.859 23.8818C146.196 23.2038 146.669 22.6772 147.279 22.3022C147.889 21.9272 148.603 21.7397 149.421 21.7397C150.239 21.7397 150.953 21.9272 151.563 22.3022C152.173 22.6772 152.646 23.2038 152.984 23.8818C153.321 24.5598 153.489 25.3515 153.489 26.2568C153.489 27.1583 153.321 27.9462 152.984 28.6204C152.646 29.2947 152.173 29.8193 151.563 30.1943C150.953 30.5693 150.239 30.7568 149.421 30.7568ZM149.427 29.3307C149.957 29.3307 150.396 29.1905 150.745 28.9102C151.093 28.6299 151.351 28.2568 151.518 27.7909C151.688 27.325 151.773 26.8117 151.773 26.2511C151.773 25.6943 151.688 25.1829 151.518 24.717C151.351 24.2473 151.093 23.8704 150.745 23.5863C150.396 23.3022 149.957 23.1602 149.427 23.1602C148.893 23.1602 148.449 23.3022 148.097 23.5863C147.749 23.8704 147.489 24.2473 147.319 24.717C147.152 25.1829 147.069 25.6943 147.069 26.2511C147.069 26.8117 147.152 27.325 147.319 27.7909C147.489 28.2568 147.749 28.6299 148.097 28.9102C148.449 29.1905 148.893 29.3307 149.427 29.3307ZM157.012 30.5807L154.444 21.8534H156.199L157.91 28.2625H157.995L159.711 21.8534H161.466L163.171 28.2341H163.256L164.955 21.8534H166.711L164.148 30.5807H162.415L160.643 24.2795H160.512L158.739 30.5807H157.012ZM171.324 30.7511C170.62 30.7511 169.991 30.5712 169.438 30.2113C168.889 29.8477 168.457 29.3307 168.143 28.6602C167.832 27.986 167.677 27.1772 167.677 26.2341C167.677 25.2909 167.834 24.4841 168.148 23.8136C168.466 23.1432 168.902 22.6299 169.455 22.2738C170.008 21.9178 170.635 21.7397 171.336 21.7397C171.877 21.7397 172.313 21.8307 172.643 22.0125C172.976 22.1905 173.234 22.3988 173.415 22.6375C173.601 22.8761 173.745 23.0863 173.847 23.2682H173.949V18.9443H175.648V30.5807H173.989V29.2227H173.847C173.745 29.4083 173.597 29.6204 173.404 29.8591C173.215 30.0977 172.953 30.306 172.62 30.4841C172.287 30.6621 171.855 30.7511 171.324 30.7511ZM171.699 29.3022C172.188 29.3022 172.601 29.1735 172.938 28.9159C173.279 28.6545 173.537 28.2928 173.711 27.8307C173.889 27.3685 173.978 26.8307 173.978 26.217C173.978 25.611 173.891 25.0807 173.716 24.6261C173.542 24.1716 173.287 23.8174 172.949 23.5636C172.612 23.3098 172.196 23.1829 171.699 23.1829C171.188 23.1829 170.762 23.3155 170.421 23.5807C170.08 23.8458 169.823 24.2076 169.648 24.6659C169.478 25.1242 169.393 25.6413 169.393 26.217C169.393 26.8004 169.48 27.325 169.654 27.7909C169.828 28.2568 170.086 28.6261 170.427 28.8988C170.771 29.1678 171.196 29.3022 171.699 29.3022Z" fill="#14B8A6"/>
</svg>
