<svg width="32" height="32" viewBox="0 0 32 32" fill="none" xmlns="http://www.w3.org/2000/svg">
<path d="M9.16123 12.7893C9.16123 14.1303 9.89045 15.5987 11.3288 17.1476C12.0045 17.8784 12.7404 18.5221 13.3225 18.9915C13.3225 18.9915 14.1855 18.2405 15.1154 17.4158C14.5535 16.9666 13.7908 16.3296 13.1017 15.5853C11.8306 14.2108 11.5563 13.3056 11.5563 12.796C11.5563 10.865 13.1753 9.29598 15.1757 9.29598C17.1559 9.29598 18.7749 10.865 18.795 12.796C18.795 12.8899 18.7816 12.9972 18.7549 13.1313C19.0158 12.568 19.2031 11.9579 19.2031 11.388C19.2098 7.84769 16.7679 7.15037 16.5873 7.11014C16.139 7.00956 15.6707 6.94922 15.189 6.94922C11.864 6.94922 9.16123 9.56419 9.16123 12.7893Z" fill="#141346"/>
<path fill-rule="evenodd" clip-rule="evenodd" d="M17.1974 15.4844C17.572 15.0955 19.1041 13.2047 19.1576 11.3943C19.2379 8.16246 16.8963 7.21705 16.5953 7.12988C19.2178 7.75345 21.178 10.06 21.1914 12.7956C21.1914 15.0284 19.0037 17.288 17.0301 18.9576L17.0368 18.9643C17.0368 18.9643 16.1738 19.7153 15.2439 20.54C15.2439 20.54 14.14 21.4787 13.1699 22.471C12.7953 22.8599 11.2833 24.744 11.2298 26.5544C11.1361 29.8734 13.6115 30.792 13.7988 30.8389C11.1562 30.2288 9.18931 27.9155 9.17593 25.1665C9.17593 22.9337 11.3636 20.6741 13.3372 18.9978C13.3305 18.9978 13.3305 18.9911 13.3238 18.9911C13.3238 18.9911 14.1868 18.2401 15.1168 17.4154C15.1168 17.4221 16.2273 16.4834 17.1974 15.4844V15.4844ZM16.5685 7.12988C16.5752 7.12988 16.5819 7.12988 16.5886 7.13659C16.5819 7.12988 16.5752 7.12988 16.5685 7.12988Z" fill="#141346"/>
<path d="M21.1914 25.1602C21.1914 23.8192 20.4622 22.3508 19.0238 20.8019C18.3481 20.071 17.6122 19.4274 17.0301 18.958C17.0301 18.958 16.1671 19.709 15.2372 20.5337C15.7992 20.9829 16.5618 21.6199 17.2509 22.3642C18.5354 23.7387 18.7963 24.6372 18.7963 25.1535C18.7963 27.0845 17.1773 28.6535 15.177 28.6535C13.1967 28.6535 11.5777 27.0845 11.5576 25.1535C11.5576 25.0596 11.571 24.9523 11.5978 24.8182C11.3368 25.3814 11.1495 25.9916 11.1495 26.5615C11.1495 30.1018 13.5914 30.7991 13.7654 30.8393C14.2136 30.9399 14.6819 31.0003 15.1636 31.0003C18.4886 30.9936 21.1914 28.3786 21.1914 25.1602Z" fill="#141346"/>
<path d="M23.1026 4.78101C22.3338 6.14489 20.9489 6.8192 20.0093 6.28711C19.0697 5.75504 18.9313 4.21803 19.7002 2.85413C20.469 1.49023 21.8539 0.815914 22.7934 1.348C23.733 1.88009 23.8714 3.4171 23.1026 4.78101Z" fill="#141346"/>
<path d="M18.3753 2.76997C18.2322 3.79618 17.543 4.54779 16.8361 4.44872C16.1292 4.34962 15.6721 3.43739 15.8153 2.41115C15.9585 1.38492 16.6476 0.633322 17.3546 0.732406C18.0615 0.831487 18.5185 1.74373 18.3753 2.76997Z" fill="#141346"/>
<path d="M15.3071 3.08604C15.3173 3.95493 14.8047 4.66542 14.1623 4.67297C13.5198 4.68052 12.9908 3.98227 12.9806 3.11338C12.9705 2.24447 13.483 1.53398 14.1255 1.52643C14.7679 1.51888 15.297 2.21714 15.3071 3.08604Z" fill="#141346"/>
<path d="M12.4874 4.54396C12.4965 5.31986 12.0703 5.95393 11.5356 5.96022C11.0009 5.9665 10.56 5.3426 10.5509 4.56672C10.5418 3.79082 10.968 3.15672 11.5027 3.15044C12.0375 3.14415 12.4783 3.76806 12.4874 4.54396Z" fill="#141346"/>
<path d="M10.5556 6.56155C10.564 7.28578 10.207 7.87716 9.75803 7.88245C9.30911 7.88771 8.93831 7.3049 8.92984 6.58067C8.92136 5.85645 9.27843 5.26506 9.72737 5.2598C10.1763 5.25452 10.5471 5.83733 10.5556 6.56155V6.56155Z" fill="#141346"/>
</svg>
