<svg width="32" height="32" viewBox="0 0 32 32" fill="none" xmlns="http://www.w3.org/2000/svg">
<rect width="32" height="32" fill="white"/>
<path d="M11.166 13.6571C11.166 14.6193 11.6892 15.6728 12.7213 16.7841C13.2061 17.3085 13.7341 17.7704 14.1517 18.1071C14.1517 18.1071 14.7709 17.5683 15.4382 16.9766C15.035 16.6543 14.4877 16.1972 13.9933 15.6632C13.0813 14.677 12.8845 14.0275 12.8845 13.6619C12.8845 12.2764 14.0461 11.1506 15.4814 11.1506C16.9022 11.1506 18.0639 12.2764 18.0783 13.6619C18.0783 13.7292 18.0687 13.8062 18.0495 13.9024C18.2367 13.4983 18.3711 13.0605 18.3711 12.6516C18.3759 10.1115 16.6238 9.61112 16.4942 9.58226C16.1726 9.51009 15.8366 9.4668 15.491 9.4668C13.1053 9.4668 11.166 11.343 11.166 13.6571Z" fill="#141346"/>
<path fill-rule="evenodd" clip-rule="evenodd" d="M16.9312 15.591C17.2 15.312 18.2992 13.9553 18.3376 12.6564C18.3952 10.3376 16.7152 9.65922 16.4992 9.59668C18.3808 10.0441 19.7873 11.699 19.7969 13.6619C19.7969 15.2639 18.2272 16.8852 16.8112 18.0831L16.816 18.0879C16.816 18.0879 16.1967 18.6267 15.5295 19.2184C15.5295 19.2184 14.7375 19.892 14.0415 20.604C13.7727 20.883 12.6878 22.2349 12.6494 23.5338C12.5822 25.9152 14.3583 26.5743 14.4927 26.608C12.5966 26.1702 11.1854 24.5104 11.1758 22.538C11.1758 20.9359 12.7454 19.3147 14.1615 18.1119C14.1567 18.1119 14.1567 18.1071 14.1519 18.1071C14.1519 18.1071 14.7711 17.5683 15.4383 16.9766C15.4383 16.9814 16.2351 16.3079 16.9312 15.591V15.591ZM16.48 9.59668C16.4848 9.59668 16.4896 9.59668 16.4944 9.60149C16.4896 9.59668 16.4848 9.59668 16.48 9.59668Z" fill="#141346"/>
<path d="M19.7969 22.5331C19.7969 21.5709 19.2737 20.5173 18.2416 19.406C17.7568 18.8816 17.2288 18.4198 16.8112 18.083C16.8112 18.083 16.1919 18.6218 15.5247 19.2136C15.9279 19.5359 16.4752 19.9929 16.9696 20.5269C17.8912 21.5132 18.0784 22.1578 18.0784 22.5283C18.0784 23.9138 16.9168 25.0395 15.4815 25.0395C14.0607 25.0395 12.899 23.9138 12.8846 22.5283C12.8846 22.4609 12.8942 22.3839 12.9134 22.2877C12.7262 22.6918 12.5918 23.1296 12.5918 23.5385C12.5918 26.0787 14.3439 26.579 14.4687 26.6079C14.7903 26.6801 15.1263 26.7234 15.4719 26.7234C17.8576 26.7185 19.7969 24.8423 19.7969 22.5331Z" fill="#141346"/>
<path d="M21.169 7.91114C20.6173 8.88973 19.6237 9.37355 18.9495 8.99178C18.2754 8.61002 18.1761 7.50721 18.7277 6.52861C19.2794 5.55001 20.273 5.06618 20.9472 5.44796C21.6213 5.82973 21.7206 6.93254 21.169 7.91114Z" fill="#141346"/>
<path d="M17.7775 6.46825C17.6748 7.20456 17.1804 7.74384 16.6731 7.67275C16.1659 7.60165 15.838 6.94712 15.9407 6.2108C16.0434 5.47448 16.5379 4.9352 17.0451 5.00629C17.5523 5.07739 17.8803 5.73192 17.7775 6.46825Z" fill="#141346"/>
<path d="M15.5756 6.69524C15.5829 7.31867 15.2152 7.82845 14.7542 7.83387C14.2933 7.83929 13.9137 7.33829 13.9064 6.71486C13.8991 6.09141 14.2668 5.58163 14.7278 5.57622C15.1888 5.5708 15.5684 6.0718 15.5756 6.69524Z" fill="#141346"/>
<path d="M13.5536 7.7411C13.5601 8.29781 13.2543 8.75276 12.8707 8.75727C12.487 8.76178 12.1707 8.31412 12.1642 7.75743C12.1576 7.20072 12.4634 6.74575 12.8471 6.74124C13.2308 6.73674 13.5471 7.18439 13.5536 7.7411Z" fill="#141346"/>
<path d="M12.1666 9.18892C12.1727 9.70855 11.9165 10.1329 11.5943 10.1367C11.2722 10.1404 11.0062 9.72227 11.0001 9.20263C10.994 8.683 11.2502 8.25868 11.5723 8.25491C11.8944 8.25112 12.1605 8.66929 12.1666 9.18892V9.18892Z" fill="#141346"/>
</svg>
